/* XPM */
static char *result[] = {
/* columns rows colors chars-per-pixel */
"128 128 89 1 ",
"  c #03050D",
". c #050712",
"X c #060916",
"o c #070A1B",
"O c #080C1E",
"+ c #070C21",
"@ c #080E23",
"# c #090F29",
"$ c #0A1027",
"% c #0A112C",
"& c #0B1433",
"* c #0F1836",
"= c #0C163B",
"- c #0E183D",
"; c #101936",
": c #111B3C",
"> c #0D1740",
", c #0E1A43",
"< c #0F1C49",
"1 c #111C44",
"2 c #111E4A",
"3 c #111F50",
"4 c #142145",
"5 c #14214D",
"6 c #18264D",
"7 c #1A284E",
"8 c #142454",
"9 c #182753",
"0 c #172857",
"q c #192955",
"w c #162659",
"e c #182759",
"r c #17285C",
"t c #192A5C",
"y c #1E305E",
"u c #20325F",
"i c #27385E",
"p c #2F3B5A",
"a c #172961",
"s c #1B2D63",
"d c #1B2F68",
"f c #1D3166",
"g c #1E336B",
"h c #1F3671",
"j c #1F3974",
"k c #1E3A79",
"l c #213464",
"z c #243866",
"x c #293B62",
"c c #20366D",
"v c #22396E",
"b c #203770",
"n c #233A73",
"m c #253E79",
"M c #33466E",
"N c #3A4A6B",
"B c #264076",
"V c #294076",
"C c #26417C",
"Z c #29437D",
"A c #2D487F",
"S c #4C5C78",
"D c #515D73",
"F c #57647E",
"G c #274481",
"H c #294681",
"J c #2C4A85",
"K c #2E4D89",
"L c #304D86",
"P c #304F89",
"I c #2F508B",
"U c #335186",
"Y c #32528D",
"T c #3A598E",
"R c #345691",
"E c #375992",
"W c #3A5B93",
"Q c #5C6C84",
"! c #42659A",
"~ c #45689B",
"^ c #68778C",
"/ c #6F7E96",
"( c #77818E",
") c #758292",
"_ c #748399",
"` c #7F8C99",
"' c #8290A0",
"] c #98A8B7",
"[ c #A6B7C6",
/* pixels */
"#@...OX.&O.X...o%.Xo@@XXXo@%#-#+>#=#=>2>2*2239>2tdcTTvsa3aeaaeaaeaaaeaeataae=2353233<888<<338<52<<<2r8fsssfsddara88ts85<22<8w88w",
"@#. .OOX%$oo...X&..O%@ooXX@##-O@&#=*2>3:8:319d28fdcU~bfaaeaeaetaeasastssssea3>228883<38<><38<,tw<2,8wrfsdslassatrr8afr8<8233wwr8",
"%%+$ O$@@&%o.X.X&$X@%%oX.X+%&-O&=&=*3:3>w121tsstsgfcbgdsaa3aaatstatttatstsaeae2121>1<2<=,<,<<<ra8<1wesfffdsssssstr8wfs85338w8wdw",
"&%%-.+&O@=%O..Xo%&X@%%XoXX@#&&&%-&**e:w>93:2aatatsfgdfffsadaaassattsststassssaae88,1,=8wr5<888sfr,288ffcddfsdssrtr8wssr88<wwwag8",
"-&&1O@&$$&&@...o%&o@#%oXXX@#=%1%=-*2a121rr*3sstatssscsststsatsu:9sessststssssssess8r82drrr8w3tsfd228ecdddsdfssssatwwdare88ftwdda",
"1%&1@$&$%&&@X.XX@%oo%&ooX.O&,%8:*-#2a211ar8tatatasstssfstssttgquetsssssssdssdsftsd8r88fttt888afsd552sfdlfdsfdgssat8wdrrerrgfdggg",
"5&-5$%&%:%:%.X.@%&.@#&oXo.o&2&r1;1&2sw;9aasassassssssttsassssd7mlefsssssssdddffttfesrrssff8wwdaff888gffffdgfsdssaaw8rsde8tgggggh",
"2558%&&-5%-%XXX%&&oO#%OXOXo-1*t112;tsatfsatsstsssssdssssstssstqnzefssssssdlsgfddscrassasff88tgfgc82rggfgfdgfsfgsfsrwsfdt8fvvhghv",
"5228*&=22*>&O.X%=&%+%&Oo%X+=-:a112:ttaassssstdssssssssssssstd2xgfpygfsfsffgdffdgsgstsfsgld83sfggdr2rgggfdgfgfssdfarrffffrggncccg",
"8228*&*28&>*OXX$=:&+&&O.&OO=*2s6121utssfstdsdusssssssssdssssa9m33m7ssffsdfgfdgdgfgssggsgcdtsggfgld9sgfggfgdfdgfdssttffsfvvhcbbhn",
"8258:&*88&=*O$@O-&1@%=@X%@O2&8r8:21fsssssftldsddssdssgdsdssg6xsw3sx2gffggfgldgcgghsfbgsgdsfbhgggggclgggfffgfdgfdsaatfgffngvcnnbn",
"28281&:891*>@;&o-*<#&=#X&%%1:waw111sassssfddsddddssgssssssde6t23e3s6edsfggfgcggcgggggbffgagbgggggdgggghgggggfffdsfatfgfhhnnbnhnn",
"58882@2882*:@11@=;5&&-%X&&%2:raw:26dsssdfgsdsdsdffffsdgfddf:9123831s:ucggbblcggccgcggbgccdcgghgcbcggggggggggddfggdstghfnnvnnnnnm",
"35582:8888*=#35$&&8:&-%o=:&::rrr119dssdsfssffdflgsgdgt161ee1113212>-1ye144ebfcgcgbgbbbffgfbcfbhgghhhghghggggggfdsdatghfnnnhnnmnm",
"8888888e88*&*93%&%81==&@:1&11ass1%efsfdfssggffdgdfffs:ucf:;1&>1<1>-%>;;lcu:ecccbhggnbcgfffccccggnUnggbcgggggfgddffsaghfnnmnnmmmB",
"82288398881&:8w&%&81=-*@:51:1ara6:fgssfsggfffcfsfgfg6111slO;#&==>>%%#Ocs2133bdcchbgcbbbffcbcgcbcnLngggcggggggggfggsagggmmnmmCUHC",
"838382888w8%89w:%;r1&1=%166%5sraagffffdffggfggfgdgfgt&1*&8%O&+@##OO@X%8%*6:9bcbcbchbgbcffcghccccvgccgcggggcgggggfssshghBnCmCH!LC",
"8383888388929881@:e5=1=%15t$6dsdffffgggffggfgfffdfffflfr%&&XO@OOooooX@*%cnbcdcgcccbbhgnfsbngcncbbcgvcghgggggvggfgsssgghBjBBCCJZC",
"888w888w8w883w88*588=1>&:esrtddsdfggfffggffgfggsfgsffcsd;%%o:222212%o#&;bfcdcfcbbhcgccghbnncgbcgghnghghhhggggggfffdsghhCBCBBCCCC",
"w898388w98w89w88e88w:1,&1ttsssssdgfdfdggggggffdgfffdfdfs%&@o&&&&&=&Oo@&*tbdccccchbbhgnhhgngbghbggcghgvghhgvggvggggdshfhCkCCCCZCC",
"3883w883w88ww88w88ww11<=4stsslddfgffsgggggggggdgdffdflr;&&oX.ooOOOoXXO=:&qccbvbcnnnbnhgnnnbghbcggcggghggggvghhggggffggnBnCCCCCCC",
"888888www8838ww8888e111:9ssfssdldgfdgggsdggfgggsd5146:*1-$X$=-25221>#X@=1;;6619gggggbgbggbgnccbnngbchgvgggggzgggggddggkCCnCmCCCC",
"388w888ew8w9w3w8ww8r1>2:5stffdddfdfgggggfggfgsgg6*rttr9:%X$1111-1>>,,@o%>399sy;9nghbhhvhcccngbggbcccnghgggghghghggfgjgCCmmBCCCBC",
"88833w833ww3w838wwee2:3=9dtdsfldfdgsdgggfgggfggft:&:=&&&OXo%&%#@#%#%%OOO#%==-&:fbgchggnggccgcgggccgcgggggggggghgggsggjCmmCCCmCZC",
"w38388838w383wwww8ww8:8:rsssfdfffggffgdddggfdflddt1@OOX.XoXoO$&&&%OOooo.OOOOO;yggbgcggnhggbbbcfgccgbggfcggggzhhgggfgggCCZCCCCCCZ",
"w88ww88w83w88wwww888r12;rsssssfffggggfggggfdfddsdsg4.o@$@oXX%48222:OoooOO%$X6bdgggghbbghcggggggbggggcccgghhghgggggdgjjCCmCZZCCCC",
"33833w8w8w88ww33w8rwe121ssssfdgffffgggggfggdffdsds;;551=&%X%8-&&&&;-Oo#;-2272:fgffgcgbgggcbcgnggcgggbggggggvgzggggdjgBCCmCCCCCCC",
"88w8883883w888wwwww0r141stdsfsdgddgffgggfgfggffff*&e1&#@@oo1=#@@+##;=.+@@@&171%cndcggcccggcgggccggcgchgggghghhhggggggjCCCCCCCCCZ",
"38w88w83888eww8ew8wwr514sassfsgddgsggggggdgffdbt%o%OXO@oXo@%%oXooX@%%oooo+OXO$O%rnbcdcvccgcggggbggggdgcgggggvgvggggvgBBCCCCCCCCZ",
"ww3388888w8w88ewwrrrt8$qssasssfdsggdsdgfgfdgcd1%:5$OOo%=%Oo$O@1%&%.O+o#%&#OX@$1:%1uncdfcggggghcgghggggffggghjgggggggjCCmCCCCCZCC",
"3838w8w88ww88wwwerrrrr4rssssssdfsgsggsfsfgfs1;185&%OXXX@&%oXo11X+1%ooO&%o..XO%&1551:rcncfgggfbgffcggdgggjgggggggggggvCCkCBCCCCCC",
"w8w8838w88ww8eww8wrwrrsrrstssassssssfdgcf61:9t8-%@oXooXX$&%X%1%..%1++%&OoooX..O#&elu4:qshbhgffdfffggggggggggggggggggjCCCCCCCCCCC",
"w38w8w8888w8ww8wwwerwrtratsaststssddcs6:;1ee2=%#oXXoooXoX$;O*,oXX@-$$%ooooo+ooXXO&&5ffq:;8sgnggfgffgggffffcfgggfggggnmmZZmCCCCCZ",
"8w38888w888www8weqwwwetrttttassddtq51*:2ee1*=@ooXooOoXooXX$$&&oooo&%$Ooooooo@+oooo%%&<rsy6;45tsfghfgggfgdddccfgfgfggmmnmmZCZZCZZ",
"3wwww88ea88rrerrrrrrrrrtatrwe861:;;12ee2=&&@ooOOO$+oooooO$oo%&XXoo%$oo+OooooooOooooo$%&=50tr5:-:25qtdfggdgcdgfggggghZmmmGZZHZCCZ",
"ww3w14111<<2112245545111:;1:*:222252:&@OOXXXXooOooXoooX&--*o@%OXX$%Xo&&*$ooooXXXXoo.oXo+%%&-58852111:495666989eqqqqqqyyytytuCZZZ",
"w33w=wqe898er9eq89qqqq88932322==*###%&&&%&&%###@OO$#OooO%%$Oo$$OO%$XO%&&ooO$#$@@$$%&%%%#@$@%%&%&=11558stt9tyyttstsusllccvvn6CZCG",
"ww8a>%,=-1-<11,1<<1,-,-=-:>>*==:=:=:->>>===&&=&=*&%%%OooO$O$oO%%%%oXOO$oo$%%&&&&&&*-=&=&&===-:=====>-,2122222393883358888r6yGZCC",
"w8ww8=+@####%##%%%#%%%##@@##@@#@++++oOO+OOoooOOooOooOoooooXoooO@$oXXooXXooOOOooooOooooooooOoooOo+@@@@@%%##&#%&%%%%&&&&&=%%yHCGGC",
"3ww88r1%&===&&=&&&&&&%#&#%##@@oXOXXooXXOoooOoooOOOooooooo.Xo$XooXXo$XooooooooXoOoooooOoooOOoooooo@##&%&%&&&&&&*==&&:=:=#;vHCGHHC",
"w9wwwwt2@+@@+@+@@@@@@@++o+OOooooOOOoO@O+@O@@OOOOooOOOoooOXo@%XOXoOO%OoooOOoOOoooooOoOOOOOoOOoooooXoO@O@O@O@@@@@@##+#$$$;VHCHHHHZ",
"wwwwet3r1@@#%####@@@#@#@$$$ooooooooOO@+O@OOOOO@$##OoooooXXX@$X$o@$o@ooOooOOOoOO#%%$OoOOOOOOOOooooooooO$O@@@@##@@####$$$7HCHCCGCG",
"wwwwwwww5@%&&&%&&&#%##%#$@OOoO+$%#OoO@@O@@Oo%&=&&&*%Oo+oOOXXoX$$$$XoooOoooOo$&&&&%&=@oOO@OOOO@@%%@oXoo@%%@$%###&#%%&&=%gHGZHHHCH",
"wwwwtwwt:+####@#####@#@@@ooO$%%%#&&@OO@@OOO&-&##+@@%%++oOXoooo$%%@XOoOOOOOo#&#@@$%%&=+O+OO@O$%%%%&%@ooX@OOO@#####$#&%&%yKHCGZZHJ",
"aawetr9>=%%%###%%#@++@@+oOo$%$oooO%&O+@@+O=&%$+ooo+@;$ooXXXOooo&$oXoOOOoOo+%+oOOOO%@&&++O@@@&%OoO+#&@ooX@@+@#%#%&%&&**&4yZGZGGHJ",
"wwawrrt*22582828211,-=-$o+O%$o++#+$%%+@@O@&%%OOOO@$o%%oOOOOOoooo$ooooOOOOo%%O@$$@$o%%&%O@@@@&@@@@OO@%@Oo%=&128wr0rrtt0tf7ZZCZHHH",
"aeatrtse&&===&&=&&&&&&@@+O@$+$++@@O%%+@@O%&#$oO@@$$o$*OOXoOOooXXXooOoOOOOO%$@@@@O@@@%&&O@@@@%@@@@O@O$@@@@@%%*:=>--:--,:4CCZJJJJH",
"ataastrs5:211<,=1----&O+%+@$@@++@@@%@@@+O&%%O@O+$O+o$&OXOOOOoXo$$ooO++OOOO%$OOO@$O@O@%&O@@@@%@@%@@@O@$@@@O=111128888502yKZZJZGHJ",
"tttsssttt&&*&&&=&&&&#@O@@@@#+@+O%%%@@@O@@%%@@@+@++++%%+O+ooooo$%$$oo+oOoOo%%O$O$@O@@@%&O@@@@@%%@O@@@@@O@++#&&=--:--:-:4mZHHHHJZH",
"sssssfssf1:21112<>,=&@@@@+@#@O@@OOO@@@@@+&%#@#@@#+@#&@OO+OOOoO%o$%OoOOO$OOO%%O+$#@@@%#%O@@@@OOOO@@@@$@@@@+#12153888wr8qHZHZHHHZJ",
"fddggdsuf9&,>>======%@@%#O+@@@@@OO@@@@@@+%%%+#@+##%&@oOOOO+oo$$oo$$o+OOOO+o$%$$%O+@+%&%@@%@#@@@OOO@@@@@$@@@&1-,111,285cHHHZHJGJG",
"ccbbvcddff:@##@@@##@@@@@O#&&&&&%%$@O@$$@+@&%o@@@@###Oo@+O+Ooo$$oo$$o+O+O$O+OO$$O+#@#%&#@@@#@@@%&---==&%@@@#@$%%%#&#%%7ZGZHHHGZJJ",
"vbHWmbccfgr@&&%&%&&@@@@@&>=%##%&&&&&@@@@++%%#+#+@@+O@O@OOOOoo+#oX$OOOO@O++O@@@O$@#@#%&+@$$@#&&=&&&&&&-,%@$$@%==&>==<&vKZZZGZJZGJ",
"vvZUbcvdffq&<=%,%&&%%%@%,%##@++@@#%&=%@@@+%&%++##$@OO@O@O++oXo+XOOooo$@@+OOO+@O$@@@#=#@#@@#==%&@@@@#%%&-%$##&-==1=-3:zJHJJKKJJJK",
"ccbbbvccfgr&8=&1&==%%%@-&%%+O+++++@#%&&@@@@&&##++@@@%&@@+Oo$%ooXoX$$$O@@$+%#$+$+#+#&&@+#@*&%#@@@@@@@+%%&-$@$&,--3,1w1vJJJJKGJGJJ",
"ddgcvcddcct&8,&2&-,%$@&=%%@@@@@@@@@@@%&%@#+%&%++@@@&%@%@++%%%@oooo$$%%O@O$#$%O@$#@%=#@#@**&#@#@@@@#@$$&&&%%#*1-=2,1r:vJHJJJGKJKJ",
"cdccfgggfbe*8<=2-,1&%@=&-%$$%%####@@+@%&%@#+&&+#%+%&@@@@@@#OOOoooOooO%O+@O@O%$+$@@%&%%@&&%%@@@#%%@#@#%@&=*##*2115,5a1BJJJJJGKKKJ",
"cfcfdggffgr=82=2:,<%%%==&@@%%@@@@@#@@o%%&%#@%%%+%$@#@@@@@@oOoOOooooooO@$%@@+%%@@@#%%#@%=&@@%%%%#%%###%@&=*%%*31,51<s4kJJIJJKJKJJ",
"cddcggggfdr1s5-5=11%%%==%$%%#%&=&##@#@#%%%@##&%+%%@##@@+@@OoO#@oo$%oooO@$@%@@@%@%%&%%@=&%%%%%%@&&&&%%%@&--%%=33,0<5f5BJJJJIKKJJJ",
"cccdgffffce1g8<8-12&%%=&%%&%#=%%=&#%%#@%&=@##=%#%#@%@++@%%%O#%%+o%%@$&%%@@@$@@#%@%&%#%&&%%%#%#=&%%&%&&%&==&%*8210<5f7BJAJJIJIKII",
"dcggggcffnt1g8,5,22&%%&=&%%&#@%@#&%%%%#%&=%@#&%#@##@@&==&&%+%%%@o@%%+%==-&%#%%#%%%&%%&=%%%&%#&=@%##&&&#&-=%&*8<40<8d5CKKJJKAKKIJ",
"ccgcgbnbnjl1v8,8125&%%===%%%%%%%#=%%%&%%&&%#%&%#%#@%<1=&##%@@%%#$%&$%%%%&,-=#@#%%%&%#&&%%%%&%=&%%%%&%&#=,&&&-85<028f5ZKKKKIKJKIK",
"cfgggbnnnhf4g51w-15&&&%=&%%%&%%%#&%%%%%%&=%#%%%%%%,2=&%===#Oo%&#%&%O@&,,=%&-,%@#%%%%#&&&&%&&#==%&&&%&%&:-%=&-05<088d5ZJJIKKIKIKK",
"fcggbbbnchf5n818158&&&#&-=&%#%%#&&%%&&%%==%%&%#%=,,&&-<=&%&14%&=-*%51&&==,=&&,<%%%%%%&&&&%&&%==%%&&&%&=1-%-&102<r20g6ZIIJKJKIAKK",
"gcgfgcghcbf1g92w138&&=%%-=-&%%$&&&%%&&#&&=#%%#%1,=&11=&=1esas9#=&&tsare2*%=1=&=,&##%%%=&&%=&%;>-%%#&-->-&&1&1w82r5rg6ZJUKKEIKIKK",
"nbgcchchnbl2g82w2<8&&&*%%=-=-=====#&&%%===###&1>&=21&=8saeeeee6@%tttsrrsr6*&11==1>#%&%&&&%&&&%>>>>-11>-%&>:&1w82r8rcqAKIKIERKKKL",
"bbgmnnhbvnl5bw2r258==*&&&%&&====&#%&&%%==#%#&1=&>3>=5saaassassd9rsttrrttsss2&13=&11%%&%=>%&&&&&->:>--&&==>1=2e85r8tnrAKKKKYKKKKK",
"nmmmnnbnbnf5cr2r288=&&&&&&&%%#$#%&&&&%==&%#&2=&>2>:sseesessaseestssastdssrast:=3>&<2%&%&=%&&===&&==&&&*=>11=2r82r8snqJKLYYKKKKUJ",
"Zmmmmmnnnmd2cq5w28r=====&&==&&&&==&&&%>=#%&2==12=4deessssassstttaaasdustfsssss;*3,;11%&%==%=====&-=-->1-111=5a85tesnqLYKKPKIKKUI",
"mGZZZmmmmmf9nr8t550=-=---==&&=====&&%&>%%&1->23&2gssssssssssssddsftsssssssssssc1=22-2,%%&>&&>>>->>:>->1111115tr8telnqLKKKYYKKJKY",
"ZGGmZZCmmml9nr8s28r---,--*&,-,-&->==&=;%&21>33=9gsssdsssssdsdssfssddssddgssssssd6-32>3=%&===>>11>:1>11>221219re8selnqLKYKKKYKKKK",
"HGGGZZZCCZl8nr5t30r,-,,,&,1<112,-===&=&%>5=29&6dsggdgfgddgggsddsfgssfdddfffdssusl7>31>2;&=>=>12-:322121122219se9defnyLPPKKIIKUKK",
"HJHHHHHHCHv8hy8s5rr,,,,:-2===&-5>--=&-#&3>1e>6dddgdscgggcdcgddfddffdffddgsffggfffg21e>22%=,>,,1132:>-28122529seefrfmyLIIYYRYRYIK",
"HHHJJJHHGAv0ktra00r,141-4<&=--&,2;>;>-%221e12cgggggggdggddcggggdggdffddggggfgfgdfgb523,9:&>1>1122-11<15528859frelrfmtJYYRYRRYRRR",
"HHLJJLJJACv0mttd8rt2<21,5=,,,,1-2>>-1&-21836ggccggccgccgdccdggdggggggdfggfgggcggffff1e223;-11,23112225282882edrefrgmyJYYYRYRRRRE",
"JJJJJJmcvBBtnttf8ta2254,5=<<,,1,12->,&832e4fcgccggccccggcccdggcggdccdcgdfgggcggbbgfge192e,;112951222252928969cstgsgmyIYVVZYRRRRY",
"JJJJLHcvygzyBsrfrtt5885,51-1211,>2-1>>e,e26bdbbbbbbbcbbcdbdcbdcdggdgdgcgcgdclgbmgcglb29336->2282236222e56ee2tctlcscntLBcnvHRYRRR",
"JJJJLJvnBfffkfsfrft3588<<8855<2222-,;993e>fbbbbbcbbbccbcbbcbcccdccgcbcgcdcbccgbbcccgcl2t8e11249239838ee5eee8tcdtctvnfLvnVvJRYRRR",
"JLJLJJAAAfffBstgrff088885<5512522312-e3e3ebbnbbnbnnbbbbcbbnbcbbbccccgdccbbbccbbbbcgccb939e2222e39e98e89ertt9scssvsgCfVcJRURRRRRR",
"KKLJLLJJZffgBftgtff000r53585888593112eee3bmbnnnbbnbbbbbcbbbbcbcbccccbccbbbccbbccbbbbcbz2t39223e93rw98ertssteycdsbfgCsflCRRYRRRRR",
"LPKKLHLLvfccnlsctff08r88088rrq8533318tt9ennbnnnnnnkbnkbbbbbnbbnbbbbbbbbbbbbbbnbbnbbbbbneeee38ee980rtt0trtttrsnffnfnZgBgvYYYYEYRY",
"YPPKLLHnlmVcCctcsff9trrsst08trr892912292cnnmnmnnnnnmnbbnnnbbbbnbbbbbbbnbbnbbnnbbbnmbbbVseeee58ee00tt0tfffrlrsngfmfnZfLmcZYYEYERE",
"AVmmnnvvvmvvHcsvaggrtrt080rqrs8r9339twt9fmnmnmmmnmmmnnknnbnnnnbbbbbnnbnnbbmbnbbnnnbbnbceeeeeeeeet0tytyttsfstfcgfvcmZvBCvvnAJAAJJ",
"ccccvnnnbcfnZclbfggtsrf0trrrrr0tttecbbnb9bmmmmmmmmnnnmnnnnnnnkbbnnbbbnbnmbnbmbnmmnnmnVfdnnnnbssetrrtswtttffdlncfncmZvccnnBmnnmmm",
"mZvALvnvmAmnZcfnfgnttsltysst00ttyttssffsamGCCmmmmkmmmmnmnnnnnnnmkbbbbnnnnmnbbmmkmnnmnmcsccscusesfftaftfttflslncfncnAnVZmVnCLJmLU",
"nmmCnVAZnVZvZbcmfgvslfsfssff0fftssttttt9mCCCCZCmmnmmmmnmnmnbnmnbnmmbkmbnmbmmmbmmnmmnVmmseettesfftgftfsfffcffcnccmvmZnLVCUYJZLnUL",
"VmnvALmnVnvmZncnfnnsffffffftsssfsftssszsmZCZGGCCmGCmmmmmmmbkkmnbnnnnnnmmmmkmmmmmmmVnmmZdfggbfsffyfgfftlcgflfcmccmnmCnAmLZJYJmCJC",
"CmnnHmZHLncmHncnfcvsfccgffttfffggcsycgnsmZGZCZGCCmGmmmCnmmmmnnmnbmmkmnmmnmmmmmmmmmZmmVZdcccbslgfgsffsfcccgvfcmvvVbmAvmCVJCCTABmZ",
"JmnVCcZVLVcBZnnmcnnffccfcsfgfggclgffbfmfZHZHHZHCCZCmCGmmmmmmmmnkmmmmkmkmmmmmmmZZZZmZmmZdbbbbsgggffffgfggccclcncnCvCJvnCKUHmLJCVZ",
"LVnnVLbmJAgCHVgmcnnsfccfcffdccgbggffncmfmHZZHHHHGGCCZCGkCCmmmmmmmmmmmmmmmmmZkGGmmmmZZZZdbbbmfcfzhgvgvvvznvccnmnnmnVZnnJYCZJCmVCL",
"AVnmJLZHLZvBZnnmcnnfccccdfzgccccccyfmcbfHJHAGHHGGCZZGCGCCCmCmmmCmmmmmmZkmZZmmGmGGmZZZZHbbnmngcccgvvgvgvvvnblnmnnCnCZmmKKJRRZmmAU",
"LHnmJHALJZvCZnnmcnmlccvcffccccccgcfcmgmfJJJHJJJHZZGZCCCCCGCmGmmmmmmmkZZmmmmZGmHHGZZZZZHbnbmnlcccvvvgngvnvnncnZnnCnCCnBUUULYJCCJI",
"LHnZLCCZHZnCZmvmcmmccgccccccbcbbgcgcnbmcGKKJJJHJJGGHGHmZgbmmZmmmmCmmmkCZZZZmHCCCGZGZGZHdnnnncbccccvcgnvnnvbnmZnnCnmAnCJZCCCHZBJY",
"JJmnmnnVmZnCZmnnbnmcccbbccccbvcvcbfcmkmbGJJJJHJHJHGHHHHn^SnJZZmmZZHmmHZmCGHCHGHHGGHGHZZbVnnndcnnnnbnnnnnnnncnVnnCnmAhBCZJLCZVCJH",
"mAmvnZJJCnnmAnvmbmncbnbcvvcbccbnnvgcmnmhJJHJJJJJHHJHHHke]QkZHHZZmmHZHHHZGGGHHHKKZHHHHHHknVnncbbbnncnnnmvmvmbnZnnmnCZnmCUIJUZCZZJ",
"VmnnBJJJAnnmHmnmnmmvvcbvcbbbbbbbnvcvmnCbHKKJJJJJJHHHHmQ/)pttqmGZZGHmZmZHHHHHHHHHHHHHHHHbmnmncbbbcnmnnnnnnvncmAnmmnZZnmZJKJKICCGU",
"LZmvmLJHZmcnmnhhnnnccvcvhvvnnnghnncnmnZhHKKJJJJJJJGGGh`_)NCJm6CHGGHGGGGGHGGHHHJHJHJHJHKhnnmmvnnncnnnnnnnvnncnmnvmnmmnvHLLLLJmmJL",
"ZZnnZHHHAmmCCmBCBBmnnhhvnnnnnnnncbfnZnZgJKJKJJJKGJJJKJrD[MGJJnqKHGHGGJJJJJJJJHJJJJHHHHHnnnnmcnvnnnnnnnnnnvnnmmmmmmmmmmmLJHJHmmLP",
"HHnnHHJJHnmCZHZZCCCBmncnnnnmnnnnnnfnZnmgJJJKJJJJJJJGHIj`QgKJJJqZJJJJJGGGJJHJHJJJJJHHKHJnmnmmcnnnnnnnnnnnmmmmmmAmAmmmmnmJJJJHmmJJ",
"ZVnbVZHHZccnngghghnggnvnvvhgghvvbcfnmnZfJKJKIKJKJJJJHKAikKJJHJyvKHGJJJJJJJKJJKJJJJHHJHHhnnmmfncnnvbcnbnnnvvvvvbbvvvmbvAHmJAHmmHZ",
"ZCnmZZHmCbnbnnnbnnhnnnnvvnggnbngbvccmmZfGKKKHIJKJJJGJJJIJJJHHJvyIJKGGKKKKJJJKKJJJJJJHJHmCnmncbnnnbbbnnbvbbcvbbvbbnbvnbmJAJALmmJH",
"qqqeqyq996569645656654555556565145565556t7vKHJJKJJJKJJJJJJJJJHByKJkJJKJKKKKKJJKJJJJJHz06656526656566696669222922296229799q9e99qe",
"852eeet9tstrrtarrtt08858855<--85815rttslvv4AJKJJJJJGJJJJJJJKlACyL6sJJJKKKGKKJJJJJGGJv6t8r8e9888888828e88232211>29333233233339263",
"&==&&&=*&&*==:>=-&-*--:&*&$@%--&=*=:&:-,2f6BHJJJJGJGJJJJJJJKz4nq9sKJJJGJKJJGJJHHGGGG7t81,-,-=====**=&&&&&-;%$%&&-;;;:;:1-:-=-=-:",
"+###%%%%%####@##%%%#%%##@O+%&##%&&&&&&=&1d4nHGGHGGJJJJJJJJJHKy4>2LHJJJHJJJJHHJHCGGZC48<=>===&&=&&&&%&&&&#@OO%%%%%#####%#%%%##%##",
"####%%%&%%%####%%%%&%@O+@%%%%&&##&#&&&=&14;ZGZZmGGCGZZZJHJJHJA4&vHAZZHHZZZZHmZCBCkmC4<,&=&&&&&&&#&&#@#@OoOoO+@@@@@@O@@+@@OO@@@#@",
"OO+Oooooo+++o+oo++oooooo+OOoOooOOO@@@@@#%@*trqqq0r8rq0ttyq0yyq55yttyttttrttrrrrt08885O$$+@+++oooOoooooXoXo++@@++++O+@+ooOooo+o+o",
"@@+++@++oooXoo++o+o@+@++@@@##&#===11112226&5eeratssddffgfggggghhccfccfclcffssssrat8r1101>>==>==#%##@#@@@+OOOooooooooO+@oOO@++o+o",
"++@+@@@@+++++++@@@+@@@@@@@++@@@@##%%&&&&&1&>383800w0rwwtt0wrrrtwerrrtwrwrwwww8888888&1-&&&&&&&&%%&&#%####@@++XoooooO+o@+++++o+@@",
"o..oOoXXooo+oo.XXXX.XXXoXXXOXO++@@#%##&#&1&*888388wwr880r08wwrwrwwwrrerwrtw8888855<2%-&&&&%&%&%%&#@###+Oo.XXXXooOO+o+@#@@@@@###@",
"ooo+@@@####+++++oXXXX+++@#@#####@###&#%&&&+1<<2<<13535358338823885858855523<<2<2<<,<%%=&&%######@+@oOooooXo+@@@@###@@@@@@#@@#Ooo",
"Xo.oXO++#++#######+o.XXoOOoXoXoXooooO+OOOO#2<885833588038508880838888888w88ww883855<-oOooo+oooooXXoo.oOoX+@@#@#@@@@@@@+++oo.o..o",
"ooooooXoo++++++##@##+XoXXoo++++++@@##&&&=&%>828880rrttaarssstdsaaatssaaarrrw8888<<<<%&,--=-=&&%%##@+++ooXXXXXooooOooXoooooOOOOoo",
"XoooooooXX.XXooo+o@@@@oXXo+@#%#%###&#%&#&>&&><<<<,<<<21<2<22<5<<22222<<<1221<<21<,,-%<-&&&%&%%%%######@@@++XXXXXo..oooXXoo.OOooO",
"XXXXoXooo+oooooXXXXXX.XXXXXXo+o+@+####&%@&&&<><,<13<5<<55253353<2322212<212<<<<<,>>=%-%#%%#%%#########@@@@+XXXXoooooOoooXoooXooo",
"XXXooXXoXXoXXXoXooooooooooooXXXooXoo+@##%&%&<,>>,,,,,,,,,,,<<,<<<1<<<<<<<<<<,1,,>>>=+%%&%%#%##%###@++oooo.XXXooXo.oo.o.ooXXXXooo",
"XXXoXoXXoXXooooo++@#@%@#@@@+@++o++++++++@o+><<<<32<<<32<333538332828252522222222<>>>#o+oo+ooooXXoXoXXX.oXXXXoXXX.ooo.oo.o.XXoXoX",
"XXXXXoXXXXXoXXXXXXX+++@@@@##########%#&&&%+=><<<2333<38358888388888888823333222,>>>=++#####@@@++ooXoXoooooooXXXoo..oo.o.ooXXXXoX",
"oXXXXXXXXXXoXoXoXXXoXXoo+++++@+@++@@@#@##&##>>=>-,--=,-,-<,<>,,<<,<,1<1>11,,,,,>>>>&+%#&%@@@@##@XoXXoo++++@+++oXoo.o.o.o.oXXXXXX",
"oXXoXoXXoXXXXXoXXXoXXXXXXXXXX.XXXo+@#@###&##>=>>--,,,,,,<,,,,<<,<,11<<><1,<,,>>,>==%+&%%%#@@@+oX.Xoo@++++++oXXXX..o.o.o.o.XXoXXo",
"XXXXXXoXXXoXoXXoXooXXoXoXXooooXX.XXX++@@##+>=>=>==>,==>,>>>,>,>,,-,,,,,>>,,,,>=>>&=#+&%#@@+oXXXXXXXoXXooXXX.XXXXXXXXXoXXX.XXXoXX",
"XXXXXXXXoXXXXoXoXXXXXXoXXXoo+@@+++++XXoXo++&&&>>==>>>,,>>>,,,>,,,,,,>>--,,,<<=1>>=&&++o.XXXXXXXXXXXXXXXXXXXXXXXXXXXXXXXX.oXXXXXX",
"XXXXXXXXXXoXXXoXXXXXXXXoXXXXX++++@+o+oXoo++&==>>>>==>==>>>>>,>=,>,,,,,,,,>,,,>===&==#X+++++oooooXXXX.XXXXXXXXXXXXXXXXoXXoooXXXXo",
"XXXXXXXXXXooXXXXXXXXXXXXXXXX.XXXXXXXXo+@+++#=&&>==>=>==,>==>=,>,,>>>=,,,>>>>>=>=>=&&++##@+@+ooXoXXXoXXXXX.XXXXXXoXXXXXXXo.XXXXXX",
"XXoXX.XXXXXXXXXXXXXXXXXXXXXXXXXoXoooo++++++#=&============>>>,>,,>>,>>>,>=>=>=>==&=#o@@+@++XoXXXXXXXXXXXXXXXoXXXXXXX.XXXXoXXXXXX",
"XXXXXXXXXXXXXXXXXooXXoXX.XXXXXXXX++o++oo++o#&===&======>==>==>>>=-=,>>>>>>>>=====&&#@@++@ooXXoooXXXXXXXXXXXXXXXXXXXXo.o.X.XXXoXX",
".XXXXXXXXXXXXXXXXXXXXoXXXXXXXXXoXoXXXXoo+++#&&===&============>=,>=,>=>====>====&&=#o+ooooXoXXoXXXXXXXXXXXXXXXXXXXXXX.Xo.XXXXXXX",
"XXXX.XXX.XXXX.XXXXXXXoXXXXXXXXXXXXXoX++oo++#&=&=&===========,>===>=,>>======&==&&&%#ooXo++ooXXXXXXX.X.XXXXXXXXXX.XXXXX.X.XXXXXXo"
};
